<?xml version="1.0" encoding="UTF-8"?>
<svg width="200px" height="200px" viewBox="0 0 200 200" version="1.1" xmlns="http://www.w3.org/2000/svg" xmlns:xlink="http://www.w3.org/1999/xlink">
    <!-- Generator: Sketch 60 (88103) - https://sketch.com -->
    <title>Artboard</title>
    <desc>Created with Sketch.</desc>
    <g id="Artboard" stroke="none" stroke-width="1" fill="none" fill-rule="evenodd">
        <path d="M99.9989425,116.021542 C94.2788667,116.021542 90.4815541,115.354265 85.7874664,114.442061 C84.7132647,114.237635 82.6285034,114.442061 82.6285034,117.601024 C82.6285034,123.917021 89.8856326,131.8125 99.9989425,131.8125 C110.112252,131.8125 117.369382,123.917021 117.369382,117.601024 C117.369382,114.442061 115.282692,114.235706 114.210419,114.442061 C109.516331,115.354265 105.720947,116.021542 99.9989425,116.021542" id="Path" fill="#FFFFFF" fill-rule="nonzero"></path>
        <path d="M94.0065127,76.8233594 C92.3498893,72.1350572 87.2103067,69.6742289 82.520076,71.3269953 C79.673538,72.3298406 77.6582045,74.6267423 76.8732851,77.3132107 C74.5763835,75.7144438 71.5678474,75.1918071 68.7251665,76.1946524 C64.0387929,77.8493473 61.5741075,82.992787 63.2307309,87.6810891 C63.4660139,88.3445099 63.7784388,88.959717 64.141006,89.5286389 C67.9036047,96.4367007 78.7748343,101.292787 85.3569713,101.352572 C90.4425545,97.1734063 95.8598481,86.570245 94.4558646,78.8329072 C94.3825797,78.1617722 94.2379386,77.4867801 94.0065127,76.8233594 Z" id="Path" fill="#FFFFFF" fill-rule="nonzero"></path>
        <path d="M105.991372,76.8233594 C107.647996,72.1350572 112.789507,69.6742289 117.477809,71.3269953 C120.324347,72.3298406 122.33968,74.6267423 123.126528,77.3132107 C125.42343,75.7144438 128.431966,75.1918071 131.274647,76.1946524 C135.961021,77.8493473 138.423777,82.992787 136.771011,87.6810891 C136.5338,88.3445099 136.223303,88.959717 135.858808,89.5286389 C132.096209,96.4367007 121.224979,101.292787 114.640914,101.352572 C109.55533,97.1734063 104.139965,86.570245 105.543949,78.8329072 C105.615305,78.1617722 105.759946,77.4867801 105.991372,76.8233594 Z" id="Path" fill="#FFFFFF" fill-rule="nonzero"></path>
        <path d="M133.25,33.5 C169.976936,33.5 199.75,63.2730641 199.75,100 C199.75,136.726936 169.976936,166.5 133.25,166.5 L66.75,166.5 C30.0230641,166.5 0.25,136.726936 0.25,100 C0.25,63.2730641 30.0230641,33.5 66.75,33.5 L133.25,33.5 Z M100,143.225 L73.4,143.225 L73.4,159.85 L100,143.225 Z M133.25,56.775 L66.75,56.775 C42.8774917,56.775 23.525,76.1274917 23.525,100 C23.525,123.633783 42.4923771,142.837498 66.0351956,143.219209 L66.75,143.225 L133.25,143.225 C157.122508,143.225 176.475,123.872508 176.475,100 C176.475,76.3662168 157.507623,57.1625018 133.964804,56.7807909 L133.25,56.775 Z" id="Rectangle" fill="#FFFFFF" fill-rule="nonzero"></path>
    </g>
</svg>